<?xml version="1.0" encoding="iso-8859-1"?>
<!-- Uploaded to: SVG Repo, www.svgrepo.com, Generator: SVG Repo Mixer Tools -->
<svg fill="#53575e" height="800px" width="800px" version="1.1" id="Layer_1" xmlns="http://www.w3.org/2000/svg" xmlns:xlink="http://www.w3.org/1999/xlink" 
	 viewBox="0 0 299.149 299.149" xml:space="preserve">
<g id="XMLID_1195_">
	<g>
		<g>
			<circle cx="213.162" cy="50.369" r="21.451"/>
			<path d="M276.145,14.155c-12.684,0-23.003,10.319-23.003,23.004c0,8.962,5.155,16.739,12.654,20.534V81.67
				c-37.595-0.587-18.334-0.497-80.328-0.497c-13.437,0-24.425,10.932-24.493,24.37l-0.382,76.038
				c-0.029,5.716,4.582,10.373,10.298,10.402c0.018,0,0.035,0,0.053,0c5.691,0,10.32-4.6,10.349-10.298l0.382-76.038
				c0.01-2.081,1.712-3.775,3.793-3.775h0.539c0,29.596-0.225,100.576-0.225,177.763c0,6.859,5.561,12.42,12.42,12.42
				s12.42-5.561,12.42-12.42v-99.275h5.362v99.275c0,6.859,5.561,12.42,12.42,12.42c6.859,0,12.42-5.561,12.42-12.42
				c0-3.946,0.005-177.653,0.005-177.653c0.135,0.002,35.182,0.55,35.317,0.55c5.715,0,10.35-4.638,10.35-10.35V57.692
				c7.498-3.795,12.653-11.571,12.653-20.534C299.148,24.474,288.829,14.155,276.145,14.155z M284.346,44.071
				c-1.892-2.46-4.857-4.053-8.2-4.053c-3.344,0-6.309,1.592-8.201,4.053c-1.578-1.869-2.535-4.28-2.535-6.913
				c0-5.919,4.816-10.735,10.735-10.735c5.919,0,10.735,4.816,10.735,10.735C286.88,39.791,285.924,42.202,284.346,44.071z"/>
			<path d="M135.801,7.092c-4.167,0-7.545,3.378-7.545,7.545v116.265l-17.747-4.393L93.968,88.026
				c-1.639-3.814-5.393-6.286-9.545-6.286h-7.21l-7.953,20.779l-4.404,11.505l3.037-14.304c0.213-1.004,0.058-2.052-0.436-2.952
				l-4.17-7.584l3.707-6.742c0.257-0.467,0.248-1.036-0.023-1.496c-0.272-0.46-0.766-0.741-1.299-0.741H55.495
				c-0.534,0-1.028,0.281-1.299,0.741c-0.272,0.46-0.281,1.028-0.023,1.496l3.707,6.742l-4.185,7.612
				c-0.486,0.883-0.644,1.908-0.448,2.896l2.655,14.58l-4.644-13.116l-8.102-20.779H32.003c-3.571,0-6.893,1.834-8.794,4.857
				L1.595,119.595c-2.376,3.777-2.074,8.65,0.749,12.105l22.422,27.444c2.052,2.512,5.036,3.814,8.046,3.816l0.005,116.629
				c0,6.885,5.582,12.467,12.467,12.467c6.885,0,12.467-5.582,12.467-12.467v-99.65h5.383v99.65c0,6.885,5.582,12.467,12.467,12.467
				s12.467-5.582,12.467-12.467c0-155.643-0.226-79.593-0.226-153.201l5.617,13.066c1.284,2.987,3.892,5.201,7.048,5.982
				l27.75,6.869v132.205c0,4.167,3.378,7.545,7.545,7.545s7.545-3.378,7.545-7.545V14.636
				C143.346,10.47,139.968,7.092,135.801,7.092z M32.812,136.151l-9.653-11.814l9.653-15.345V136.151z"/>
			<circle cx="60.582" cy="51.982" r="21.532"/>
		</g>
	</g>
</g>
</svg>