<svg width="22" height="15" viewBox="0 0 22 15" fill="none" xmlns="http://www.w3.org/2000/svg">
<rect width="22" height="15" fill="#E5E5E5"/>
<g filter="url(#filter0_d_0_1)">
<rect x="-553" y="-167" width="1128" height="611" rx="20" fill="white"/>
</g>
<rect x="-145.5" y="-6.5" width="313" height="62" rx="29.5" stroke="#A3A3A3" stroke-dasharray="2 2"/>
<path d="M11.4004 13.4949C13.5048 13.4949 15.6129 13.5023 17.7173 13.4912C18.8914 13.4875 19.7954 12.9742 20.3619 11.9588C20.917 10.9658 20.8645 9.95782 20.2681 8.99079C19.8442 8.30272 19.214 7.87499 18.415 7.70762C18.2425 7.67043 18.1825 7.6072 18.1862 7.42867C18.19 7.146 18.1825 6.8559 18.1337 6.57695C17.7061 4.23377 15.4216 2.88365 13.1296 3.61264C12.7395 3.73909 12.7395 3.73909 12.5257 3.38948C11.5654 1.80876 9.69359 0.997945 7.9418 1.40707C5.94994 1.87199 4.64454 3.49362 4.62579 5.52437C4.62203 5.94094 4.62203 5.94094 4.21691 6.02277C2.15003 6.43933 0.803361 8.6077 1.34728 10.6273C1.81617 12.3568 3.30538 13.4912 5.11344 13.4912C7.21408 13.4986 9.30723 13.4949 11.4004 13.4949ZM0.428246 9.15444C0.492016 8.70812 0.642062 7.63324 1.42605 6.82614C2.10126 6.12691 3.46668 5.42023 3.64298 5.357C3.77803 5.30865 3.82304 5.24914 3.83429 5.11525C3.91682 4.12219 4.24317 3.21095 4.87336 2.42989C6.10374 0.904962 7.70923 0.254079 9.65983 0.540467C11.0778 0.74875 12.1844 1.49634 13.0171 2.64933C13.0921 2.75347 13.1597 2.79066 13.2909 2.74603C14.2362 2.45964 15.1778 2.51543 16.0781 2.89853C17.8298 3.64239 18.7901 4.98135 18.9927 6.8559C19.0077 6.99351 19.0565 7.05674 19.184 7.10509C19.8892 7.3766 20.4632 7.82292 20.902 8.43661C21.2584 8.935 21.4722 9.48547 21.5847 10.0843C21.6148 10.3223 21.6373 10.6571 21.581 11.0513C21.5622 11.1815 21.4722 11.7543 21.0971 12.3977C20.9658 12.6209 20.5157 13.3759 19.6266 13.8668C18.8277 14.3094 18.0549 14.3318 17.7098 14.3355C15.5979 14.369 14.5438 14.3875 11.768 14.3392C9.75736 14.3057 8.28316 14.4582 5.13219 14.3318C4.56952 14.3094 3.63548 14.2611 2.68269 13.6995C1.62111 13.0746 1.06594 12.1262 0.852126 11.6948C0.495767 10.9844 0.420744 10.3781 0.405739 10.2405C0.394486 10.114 0.353223 9.69747 0.428246 9.15444Z" fill="#A3A3A3"/>
<path d="M8.80778 8.36122C8.71025 8.28312 8.67649 8.2608 8.64648 8.23105C8.47768 8.07484 8.30888 7.92234 8.09131 7.72522C8.30137 7.53553 8.48143 7.38676 8.65023 7.22311C9.3817 6.50528 10.1132 5.78373 10.8372 5.05474C10.9534 4.93944 11.021 4.93944 11.1372 5.05474C11.9888 5.91018 12.8515 6.75447 13.7068 7.6062C13.7405 7.63967 13.7743 7.67687 13.8006 7.71034C13.598 7.90375 13.3992 8.09343 13.1816 8.30171C12.6227 7.74381 12.0375 7.15988 11.4223 6.54619C11.4148 6.65777 11.4111 6.71728 11.4111 6.77307C11.4111 8.24221 11.4073 9.71134 11.4148 11.1805C11.4148 11.3664 11.3586 11.4185 11.1823 11.3999C11.051 11.385 10.9197 11.385 10.7884 11.3999C10.6121 11.4185 10.5558 11.3664 10.5558 11.1805C10.5633 9.71878 10.5596 8.25708 10.5596 6.79166C10.5596 6.72844 10.5596 6.66893 10.5596 6.59454C9.97439 7.1822 9.39671 7.76613 8.80778 8.36122Z" fill="#A3A3A3"/>
<defs>
<filter id="filter0_d_0_1" x="-563" y="-173" width="1148" height="631" filterUnits="userSpaceOnUse" color-interpolation-filters="sRGB">
<feFlood flood-opacity="0" result="BackgroundImageFix"/>
<feColorMatrix in="SourceAlpha" type="matrix" values="0 0 0 0 0 0 0 0 0 0 0 0 0 0 0 0 0 0 127 0" result="hardAlpha"/>
<feOffset dy="4"/>
<feGaussianBlur stdDeviation="5"/>
<feComposite in2="hardAlpha" operator="out"/>
<feColorMatrix type="matrix" values="0 0 0 0 0 0 0 0 0 0 0 0 0 0 0 0 0 0 0.25 0"/>
<feBlend mode="normal" in2="BackgroundImageFix" result="effect1_dropShadow_0_1"/>
<feBlend mode="normal" in="SourceGraphic" in2="effect1_dropShadow_0_1" result="shape"/>
</filter>
</defs>
</svg>
