<?xml version="1.0" encoding="utf-8"?>
<svg width="12" height="16" viewBox="0 0 12 16" fill="none" xmlns="http://www.w3.org/2000/svg">
  <path d="M 1.755 5.196 L 5.131 1.818 C 5.297 1.652 5.518 1.552 5.752 1.537 C 5.987 1.522 6.219 1.593 6.405 1.737 L 6.496 1.818 L 9.877 5.196 C 10.05 5.37 10.15 5.603 10.158 5.848 C 10.165 6.093 10.079 6.332 9.917 6.516 C 9.755 6.7 9.529 6.815 9.284 6.839 C 9.04 6.862 8.797 6.791 8.603 6.641 L 8.512 6.561 L 6.781 4.832 L 6.781 13.364 C 6.781 13.601 6.694 13.829 6.537 14.005 C 6.38 14.182 6.164 14.295 5.929 14.323 L 5.816 14.329 C 5.58 14.329 5.351 14.243 5.175 14.085 C 4.998 13.928 4.885 13.712 4.857 13.477 L 4.851 13.364 L 4.851 4.829 L 3.12 6.561 C 2.954 6.727 2.733 6.827 2.498 6.842 C 2.264 6.857 2.032 6.785 1.846 6.641 L 1.755 6.561 C 1.589 6.395 1.489 6.174 1.475 5.939 C 1.46 5.705 1.531 5.473 1.675 5.287 L 1.755 5.196 Z" style="fill: rgb(83, 87, 94);"/>
</svg>